<?xml version="1.0" standalone="no"?><!DOCTYPE svg PUBLIC "-//W3C//DTD SVG 1.1//EN" "http://www.w3.org/Graphics/SVG/1.1/DTD/svg11.dtd"><svg t="1642313567816" class="icon" viewBox="0 0 1024 1024" version="1.1" xmlns="http://www.w3.org/2000/svg" p-id="8001" xmlns:xlink="http://www.w3.org/1999/xlink" width="250" height="250"><defs><style type="text/css"></style></defs><path d="M991.948935 430.567619L565.769887 21.455238A81.92 81.92 0 0 0 455.567983 21.455238L30.364173 430.567619a40.96 40.96 0 1 0 55.100952 60.952381l17.554286-16.579048v465.188572A82.407619 82.407619 0 0 0 184.939411 1024h164.815238v-312.07619a84.845714 84.845714 0 0 1 84.845715-84.845715h153.11238a84.845714 84.845714 0 0 1 84.845715 84.845715V1024h163.84a82.407619 82.407619 0 0 0 82.407619-81.92V474.940952l17.554286 16.579048A40.96 40.96 0 1 0 991.948935 430.567619z" fill="#ffffff" p-id="8002" data-spm-anchor-id="a313x.7781069.0.i19" class="selected"></path></svg>