<?xml version="1.0" standalone="no"?><!DOCTYPE svg PUBLIC "-//W3C//DTD SVG 1.1//EN" "http://www.w3.org/Graphics/SVG/1.1/DTD/svg11.dtd"><svg t="1642309169116" class="icon" viewBox="0 0 1024 1024" version="1.1" xmlns="http://www.w3.org/2000/svg" p-id="1166" xmlns:xlink="http://www.w3.org/1999/xlink" width="200" height="200"><defs><style type="text/css"></style></defs><path d="M512 82c198.3 0 359 161.8 359 361.4 0 126.6-108.4 288.6-325.3 486-19.1 17.4-48.2 17.4-67.3 0l-6.5-5.9C259.3 728.8 153 568.7 153 443.4 153 243.8 313.7 82 512 82z m0 150c-82.8 0-150 67.2-150 150s67.2 150 150 150 150-67.2 150-150-67.2-150-150-150z" fill="#ffffff" p-id="1167"></path><path d="M512 974.4c-20.4 0-40-7.6-55.1-21.3l-6.5-5.9c-107.7-98.7-189.9-190.2-244.2-272-27.8-41.9-49-82.3-63.1-120.1-14.6-39.1-21.9-76.7-21.9-111.7 0-53.1 10.3-104.5 30.7-153 19.7-46.8 47.8-88.9 83.7-125 35.9-36.1 77.7-64.5 124.3-84.3 48.1-20.6 99.3-31 152.1-31S616 60.5 664.2 81c46.6 19.8 88.4 48.2 124.3 84.3 35.9 36.1 64 78.2 83.7 125 20.4 48.5 30.7 100 30.7 153 0 35.4-7.5 73.3-22.4 112.9-14.4 38.2-36 79.1-64.4 121.4-55.3 82.8-139.1 175.5-249 275.4-15.1 13.8-34.7 21.4-55.1 21.4z m0-860.5c-87.3 0-169.4 34.2-231.2 96.4-61.8 62.2-95.9 145-95.9 233 0 56 25 122.1 74.4 196.4 51.5 77.5 130.2 165 234.1 260.2l6.4 5.9c6.9 6.3 17.4 6.3 24.3 0 106-96.5 186.4-185.2 239-263.7 50.4-75.3 75.9-142.2 75.9-198.8 0-88-34-170.8-95.9-233-61.7-62.1-143.8-96.4-231.1-96.4z m0 450c-100.3 0-181.9-81.6-181.9-181.9S411.7 200.1 512 200.1 693.9 281.7 693.9 382 612.3 563.9 512 563.9z m0-300c-65.1 0-118.1 53-118.1 118.1s53 118.1 118.1 118.1 118.1-53 118.1-118.1-53-118.1-118.1-118.1z" fill="#ffffff" p-id="1168"></path></svg>