<svg xmlns="http://www.w3.org/2000/svg" width="32" height="32"><path data-name="矩形 8 拷贝" d="M28.764 22.14C25.317 29.984 15.976 32 15.976 32s-9.314-2.014-12.751-9.857c-2-4.571-.955-18.357-.955-18.357S6.073 0 15.976 0c9.934 0 13.746 3.787 13.746 3.787s1.049 13.782-.958 18.353zm-8.681-9.926a.5.5 0 0 0-.51-.5h-1.386v-.785h-.027c.011-.13.027-.258.027-.393 0-1.716-.979-3.107-2.187-3.107s-2.188 1.391-2.188 3.107c0 .135.017.263.028.393h-.028v.786h-1.385a.5.5 0 0 0-.51.5v1.357a.5.5 0 0 0 .51.5h1.721v7.875a1.986 1.986 0 0 0-.044.232A1.95 1.95 0 0 0 15.31 24a.816.816 0 0 0-.039.211.731.731 0 1 0 1.458 0 .835.835 0 0 0-.043-.23 1.968 1.968 0 0 0 1.125-1.741h.024v-8.169h1.738a.5.5 0 0 0 .51-.5v-1.357z"/></svg>