<?xml version="1.0" standalone="no"?><!DOCTYPE svg PUBLIC "-//W3C//DTD SVG 1.1//EN" "http://www.w3.org/Graphics/SVG/1.1/DTD/svg11.dtd"><svg t="1642313117046" class="icon" viewBox="0 0 1195 1024" version="1.1" xmlns="http://www.w3.org/2000/svg" p-id="6283" xmlns:xlink="http://www.w3.org/1999/xlink" width="233.3984375" height="200"><defs><style type="text/css"></style></defs><path d="M1063.916848 1024H63.518738a72.492617 72.492617 0 0 1-53.729822-108.312498C40.491672 853.429137 482.270206 91.830235 512.972961 37.247559a57.994093 57.994093 0 0 1 108.312498 0c37.52559 75.05118 477.598416 831.532956 498.919774 875.88138a72.492617 72.492617 0 0 1-56.288385 110.871061z" fill="#ffffff" p-id="6284" data-spm-anchor-id="a313x.7781069.0.i4" class=""></path><path d="M520.64865 326.365172h100.636809L598.258393 705.032487h-58.846948z m49.46555 418.751467a58.846948 58.846948 0 0 1 41.789862 15.351378 54.582676 54.582676 0 0 1 16.204232 40.084153 56.288385 56.288385 0 0 1-16.204232 40.937007 60.552656 60.552656 0 0 1-41.789862 15.351378 54.582676 54.582676 0 0 1-40.084152-16.204232 55.43553 55.43553 0 0 1 0-80.168306 54.582676 54.582676 0 0 1 40.084152-15.351378z" fill="#2c2c2c" p-id="6285" data-spm-anchor-id="a313x.7781069.0.i8" class="selected"></path></svg>